<svg xmlns="http://www.w3.org/2000/svg" xmlns:xlink="http://www.w3.org/1999/xlink" width="500" zoomAndPan="magnify" viewBox="0 0 375 374.999991" height="500" preserveAspectRatio="xMidYMid meet" version="1.0"><defs><clipPath id="id1"><path d="M 99 70 L 273 70 L 273 308.964844 L 99 308.964844 Z M 99 70 " clip-rule="nonzero"/></clipPath></defs><rect x="-37.5" width="450" fill="#ffffff" y="-37.499999" height="449.999989" fill-opacity="1"/><rect x="-37.5" width="450" fill="#ffffff" y="-37.499999" height="449.999989" fill-opacity="1"/><rect x="-37.5" width="450" fill="#ffffff" y="-37.499999" height="449.999989" fill-opacity="1"/><g clip-path="url(#id1)"><path fill="#1f252d" d="M 272.199219 136.839844 L 220.160156 188.847656 C 201.34375 207.660156 170.832031 207.652344 152.015625 188.847656 L 99.980469 136.839844 L 152 84.808594 C 170.824219 65.988281 201.34375 65.988281 220.167969 84.808594 Z M 186.003906 308.957031 L 186.160156 308.957031 C 217.898438 308.957031 233.78125 270.589844 211.332031 248.164062 L 186.082031 222.941406 L 160.828125 248.164062 C 138.378906 270.59375 154.265625 308.957031 186.003906 308.957031 Z M 186.003906 308.957031 " fill-opacity="1" fill-rule="nonzero"/></g><path fill="#24b884" d="M 241.035156 202.726562 L 301.921875 141.851562 C 315.851562 127.925781 338.429688 127.925781 352.351562 141.851562 L 352.367188 141.867188 C 374.832031 164.324219 358.921875 202.730469 327.152344 202.730469 L 241.035156 202.730469 Z M 134 202.726562 L 73.121094 141.851562 C 59.191406 127.925781 36.613281 127.925781 22.691406 141.851562 L 22.675781 141.867188 C 0.210938 164.324219 16.121094 202.730469 47.890625 202.730469 L 134 202.730469 Z M 134 202.726562 " fill-opacity="1" fill-rule="nonzero"/></svg>